<svg width="39" height="38" viewBox="0 0 39 38" fill="none" xmlns="http://www.w3.org/2000/svg">
<path d="M0 15.4054C0 6.89724 6.89724 0 15.4054 0H22.9166C31.4248 0 38.322 6.89724 38.322 15.4054V22.5946C38.322 31.1028 31.4248 38 22.9166 38H15.4054C6.89724 38 0 31.1028 0 22.5946V15.4054Z" fill="#F3F3F6"/>
<g clip-path="url(#clip0_2988_1241)">
<path d="M22.1857 18C22.1857 17.4477 21.738 17 21.1857 17H11.084C10.5317 17 10.084 17.4477 10.084 18C10.084 18.5523 10.5317 19 11.084 19H21.1857C21.738 19 22.1857 18.5523 22.1857 18ZM22.1857 14C22.1857 13.4477 21.738 13 21.1857 13H11.084C10.5317 13 10.084 13.4477 10.084 14C10.084 14.5523 10.5317 15 11.084 15H21.1857C21.738 15 22.1857 14.5523 22.1857 14ZM26.2196 21V18.0085C26.2196 17.4515 25.7681 17 25.2111 17C24.6541 17 24.2026 17.4515 24.2026 18.0085V21H21.1687C20.6164 21 20.1687 21.4477 20.1687 22C20.1687 22.5523 20.6164 23 21.1687 23H24.2026V25.9915C24.2026 26.5485 24.6541 27 25.2111 27C25.7681 27 26.2196 26.5485 26.2196 25.9915V23H29.2535C29.8058 23 30.2535 22.5523 30.2535 22C30.2535 21.4477 29.8058 21 29.2535 21H26.2196ZM10.084 22C10.084 22.5523 10.5317 23 11.084 23H17.1518C17.7041 23 18.1518 22.5523 18.1518 22C18.1518 21.4477 17.7041 21 17.1518 21H11.084C10.5317 21 10.084 21.4477 10.084 22Z" fill="#939392"/>
</g>
<defs>
<clipPath id="clip0_2988_1241">
<rect width="20.1695" height="14" fill="white" transform="translate(10.084 13)"/>
</clipPath>
</defs>
</svg>
