<svg width="19" height="19" viewBox="0 0 19 19" fill="none" xmlns="http://www.w3.org/2000/svg">
<path d="M3.9585 7.85559C3.9585 11.6966 7.31871 14.873 8.80602 16.0908C9.01888 16.2651 9.12659 16.3533 9.28539 16.398C9.40905 16.4328 9.59104 16.4328 9.7147 16.398C9.87381 16.3532 9.98076 16.2659 10.1944 16.0909C11.6817 14.8731 15.0418 11.697 15.0418 7.85594C15.0418 6.40235 14.4579 5.00812 13.4187 3.98028C12.3794 2.95244 10.97 2.375 9.50023 2.375C8.03049 2.375 6.62088 2.95252 5.58161 3.98037C4.54235 5.00821 3.9585 6.402 3.9585 7.85559Z" stroke="#014EBA" stroke-width="1.58333" stroke-linecap="round" stroke-linejoin="round"/>
<path d="M7.91683 7.125C7.91683 7.99945 8.62571 8.70833 9.50016 8.70833C10.3746 8.70833 11.0835 7.99945 11.0835 7.125C11.0835 6.25055 10.3746 5.54167 9.50016 5.54167C8.62571 5.54167 7.91683 6.25055 7.91683 7.125Z" stroke="#014EBA" stroke-width="1.58333" stroke-linecap="round" stroke-linejoin="round"/>
</svg>
