<svg width="18" height="16" viewBox="0 0 18 16" fill="none" xmlns="http://www.w3.org/2000/svg">
<path d="M3.5 14.4602H14.5C14.9647 14.4602 15.197 14.4601 15.3902 14.4247C16.1836 14.2797 16.8036 13.7099 16.9614 12.9808C16.9999 12.8033 16.9999 12.5898 16.9999 12.1628C16.9999 11.7358 16.9999 11.5223 16.9614 11.3448C16.8036 10.6157 16.1836 10.0457 15.3902 9.9007C15.197 9.86538 14.9647 9.86538 14.5 9.86538H3.5C3.03534 9.86538 2.80306 9.86538 2.60986 9.9007C1.81648 10.0457 1.19624 10.6157 1.03843 11.3448C1 11.5223 1 11.7358 1 12.1628C1 12.5898 1 12.8032 1.03843 12.9808C1.19624 13.7099 1.81648 14.2797 2.60986 14.4247C2.80306 14.4601 3.03535 14.4602 3.5 14.4602Z" stroke="white" stroke-width="2" stroke-linecap="round" stroke-linejoin="round"/>
<path d="M3.5 6.18954H14.5C14.9647 6.18954 15.197 6.1894 15.3902 6.15409C16.1836 6.00906 16.8036 5.43926 16.9614 4.71017C16.9999 4.53263 16.9999 4.31913 16.9999 3.89213C16.9999 3.46514 16.9999 3.25167 16.9614 3.07413C16.8036 2.34504 16.1836 1.77507 15.3902 1.63004C15.197 1.59473 14.9647 1.59473 14.5 1.59473H3.5C3.03534 1.59473 2.80306 1.59473 2.60986 1.63004C1.81648 1.77507 1.19624 2.34504 1.03843 3.07413C1 3.25167 1 3.46517 1 3.89217C1 4.31917 1 4.53259 1.03843 4.71013C1.19624 5.43922 1.81648 6.00906 2.60986 6.15409C2.80306 6.1894 3.03535 6.18954 3.5 6.18954Z" stroke="white" stroke-width="2" stroke-linecap="round" stroke-linejoin="round"/>
</svg>
