<svg width="87" height="75" viewBox="0 0 87 75" fill="none" xmlns="http://www.w3.org/2000/svg">
<rect x="23.46" y="10.7527" width="63.5397" height="63.5397" rx="13.0561" fill="#014EBA" fill-opacity="0.1"/>
<path d="M5.86499 58.6521H11.7302M11.7302 58.6521H41.0562M11.7302 58.6521V18.1828C11.7302 14.8979 11.7302 13.2543 12.3695 11.9997C12.9318 10.896 13.8284 9.99944 14.932 9.43712C16.1866 8.79785 17.8303 8.79785 21.1151 8.79785H31.6725C34.9573 8.79785 36.5974 8.79785 37.8521 9.43712C38.9557 9.99944 39.8553 10.896 40.4176 11.9997C41.0562 13.2531 41.0562 14.8947 41.0562 18.1731V35.1913M41.0562 58.6521H58.6519M41.0562 58.6521V35.1913M58.6519 58.6521H64.5171M58.6519 58.6521V35.1913C58.6519 32.4584 58.6516 31.0927 58.2051 30.0148C57.6098 28.5777 56.4691 27.4352 55.0319 26.8399C53.9541 26.3935 52.5861 26.3935 49.8533 26.3935C47.1204 26.3935 45.754 26.3935 44.6762 26.8399C43.239 27.4352 42.098 28.5777 41.5027 30.0148C41.0562 31.0927 41.0562 32.4584 41.0562 35.1913M20.528 29.3261H32.2584M20.528 20.5283H32.2584" stroke="#014EBA" stroke-width="4" stroke-linecap="round" stroke-linejoin="round"/>
</svg>
