<svg width="87" height="75" viewBox="0 0 87 75" fill="none" xmlns="http://www.w3.org/2000/svg">
<rect x="23.46" y="10.7527" width="63.5397" height="63.5397" rx="13.0561" fill="#014EBA" fill-opacity="0.1"/>
<path d="M5.86523 58.6522H11.7304M11.7304 58.6522H29.3261M11.7304 58.6522V33.5848C11.7304 32.0178 11.7304 31.2338 11.921 30.5047C12.0898 29.8585 12.3691 29.247 12.7443 28.6944C13.1675 28.0709 13.7558 27.5538 14.9351 26.5219L29.0163 14.2009C31.2025 12.288 32.2957 11.3314 33.5268 10.9673C34.6124 10.6463 35.7696 10.6463 36.8552 10.9673C38.0872 11.3317 39.182 12.2891 41.3715 14.205L55.448 26.5219C56.6273 27.5537 57.2158 28.0709 57.6391 28.6944C58.0142 29.247 58.2914 29.8585 58.4602 30.5047C58.6508 31.2338 58.6521 32.0178 58.6521 33.5848V58.6522M29.3261 58.6522H41.0565M29.3261 58.6522V46.9218C29.3261 43.6825 31.952 41.0566 35.1913 41.0566C38.4305 41.0566 41.0565 43.6825 41.0565 46.9218V58.6522M41.0565 58.6522H58.6521M58.6521 58.6522H64.5173" stroke="#014EBA" stroke-width="4" stroke-linecap="round" stroke-linejoin="round"/>
</svg>
