<svg width="87" height="75" viewBox="0 0 87 75" fill="none" xmlns="http://www.w3.org/2000/svg">
<rect x="23.46" y="10.7527" width="63.5397" height="63.5397" rx="13.0561" fill="#014EBA" fill-opacity="0.1"/>
<path d="M50.4896 56.6939C46.7308 52.496 41.2696 49.8543 35.1913 49.8543C29.113 49.8543 23.6513 52.496 19.8925 56.6939M35.1913 61.5847C20.6146 61.5847 8.79785 49.768 8.79785 35.1913C8.79785 20.6146 20.6146 8.79785 35.1913 8.79785C49.768 8.79785 61.5847 20.6146 61.5847 35.1913C61.5847 49.768 49.768 61.5847 35.1913 61.5847ZM35.1913 41.0565C30.3324 41.0565 26.3935 37.1176 26.3935 32.2587C26.3935 27.3998 30.3324 23.4609 35.1913 23.4609C40.0502 23.4609 43.9891 27.3998 43.9891 32.2587C43.9891 37.1176 40.0502 41.0565 35.1913 41.0565Z" stroke="#014EBA" stroke-width="4" stroke-linecap="round" stroke-linejoin="round"/>
</svg>
